<?xml version="1.0" encoding="UTF-8"?>
<svg version="1.1" xmlns="http://www.w3.org/2000/svg" width="1254" height="1254">
<path d="M0 0 C413.82 0 827.64 0 1254 0 C1254 413.82 1254 827.64 1254 1254 C840.18 1254 426.36 1254 0 1254 C0 840.18 0 426.36 0 0 Z " fill="#FDFDFD" transform="translate(0,0)"/>
<path d="M0 0 C0 2 0 2 -2.109375 4.2421875 C-3.06328125 5.15226563 -4.0171875 6.06234375 -5 7 C-6.00702991 7.9799023 -7.01218406 8.96173533 -8.015625 9.9453125 C-8.53979004 10.45900391 -9.06395508 10.97269531 -9.60400391 11.50195312 C-15.00339632 16.82606478 -20.04871595 22.24549858 -24.76171875 28.19921875 C-26.79784721 30.74704442 -28.89506449 33.21685549 -31.02978516 35.68115234 C-37.17123008 42.79824131 -42.72484208 50.22422283 -48 58 C-48.55703613 58.81726563 -49.11407227 59.63453125 -49.68798828 60.4765625 C-59.42113644 74.83943346 -68.01504862 89.60272324 -76 105 C-76.38687988 105.73669922 -76.77375977 106.47339844 -77.17236328 107.23242188 C-80.64748539 113.85631803 -83.68125089 120.47162495 -86.10546875 127.55859375 C-86.92842515 129.8046538 -87.87850484 131.82874269 -89 133.9375 C-91.1968509 138.13382847 -92.56509747 142.51803668 -94.0078125 147.01953125 C-94.86541915 149.59572761 -95.81947852 152.0632694 -96.875 154.5625 C-103.78049487 171.51481289 -108.86137603 189.97303158 -112 208 C-112.22300781 209.258125 -112.44601562 210.51625 -112.67578125 211.8125 C-113.06269324 213.99742962 -113.44750432 216.18264872 -113.8269043 218.36889648 C-114.6309309 222.99017087 -115.51655863 227.58779827 -116.4375 232.1875 C-117.91954838 239.89633396 -118.99923553 247.66148259 -120.0625 255.4375 C-120.30601196 257.17519653 -120.30601196 257.17519653 -120.55444336 258.94799805 C-123.1900766 278.7440265 -124.32253963 298.50333507 -124.20581055 318.46704102 C-124.18744309 321.69750882 -124.18530301 324.92768814 -124.18554688 328.15820312 C-124.16472936 340.19677321 -123.85377998 352.18903019 -123.21826172 364.21069336 C-122.88449086 370.8071352 -122.90743588 377.39709298 -123 384 C-122.34 384 -121.68 384 -121 384 C-120.505 392.415 -120.505 392.415 -120 401 C-122.86791236 401.95597079 -124.63765834 402.12358605 -127.61271667 402.12025452 C-129.03248055 402.12231651 -129.03248055 402.12231651 -130.48092651 402.12442017 C-131.5174234 402.12082489 -132.55392029 402.11722961 -133.62182617 402.11352539 C-134.71466415 402.11367142 -135.80750214 402.11381744 -136.93345642 402.1139679 C-140.55331391 402.11327005 -144.17312023 402.10548358 -147.79296875 402.09765625 C-150.29974845 402.09579162 -152.80652852 402.09436793 -155.31330872 402.09336853 C-161.24185005 402.08993774 -167.17037491 402.08205257 -173.09890777 402.07201904 C-180.51059669 402.05974754 -187.92228789 402.05437466 -195.33398438 402.04882812 C-208.55599895 402.03809709 -221.77799831 402.02121663 -235 402 C-235.02056395 398.67644162 -235.03281787 395.35289994 -235.04370117 392.02929688 C-235.04955986 391.09865417 -235.05541855 390.16801147 -235.06145477 389.20916748 C-235.08184491 380.8826997 -234.3820983 372.75173188 -233.3125 364.5 C-233.1298245 363.03247796 -232.94720873 361.56494848 -232.76464844 360.09741211 C-228.57480986 327.02447417 -222.07195677 293.82123744 -212 262 C-211.62536621 260.80793945 -211.25073242 259.61587891 -210.86474609 258.38769531 C-198.86291106 220.4013682 -183.43093232 183.86903496 -162.69384766 149.79052734 C-161.03999818 147.06589495 -159.41457561 144.32594369 -157.79296875 141.58203125 C-150.5911482 129.52572417 -142.52043702 118.3599894 -133.83349609 107.33300781 C-132.18159648 105.23107004 -130.54919493 103.11614925 -128.92578125 100.9921875 C-123.41134358 93.80878013 -117.57044249 87.05730136 -111.36621094 80.46337891 C-109.54672055 78.5144823 -107.76312404 76.53348873 -105.9765625 74.55444336 C-97.07305222 64.72616458 -87.93600922 55.2681339 -77.51953125 47.02734375 C-75.22699881 45.18265485 -73.08677489 43.25738102 -70.9375 41.25 C-55.84739888 27.7255981 -21.48920614 0 0 0 Z " fill="#010101" transform="translate(629,213)"/>
<path d="M0 0 C3.21415144 1.60939473 5.40805763 3.57510728 8.01953125 6.04296875 C8.99552416 6.95503698 9.97208922 7.86649333 10.94921875 8.77734375 C11.85929688 9.628125 12.769375 10.47890625 13.70703125 11.35546875 C15.01303809 12.50869744 16.32480585 13.65546484 17.64453125 14.79296875 C26.15252183 22.20707482 34.35116365 29.87185773 42.234375 37.9453125 C44.65560356 40.38488198 44.65560356 40.38488198 47.31640625 42.4375 C49.51724787 44.2032079 51.22051001 45.94485763 53.01953125 48.10546875 C55.47659904 50.98359588 58.00768448 53.70311254 60.70703125 56.35546875 C64.5871943 60.1911175 68.16924818 64.20456391 71.70703125 68.35546875 C72.51914062 69.29003906 73.33125 70.22460938 74.16796875 71.1875 C80.3841903 78.38421602 86.16861577 85.83443033 91.8203125 93.48046875 C94.29781428 96.82840003 96.86729133 100.09335079 99.45703125 103.35546875 C153.92947791 174.00352156 191.00845934 261.8735519 211.70703125 375.35546875 C209.27939918 373.13838091 207.80344483 370.96429386 206.28125 368.05859375 C205.82137695 367.19347168 205.36150391 366.32834961 204.88769531 365.43701172 C204.39495117 364.50260254 203.90220703 363.56819336 203.39453125 362.60546875 C194.68842739 346.37260617 185.22576762 330.48626645 174.70703125 315.35546875 C174.07861328 314.4418457 174.07861328 314.4418457 173.4375 313.50976562 C165.60153797 302.13106583 157.28034182 291.18637161 148.70703125 280.35546875 C147.57974609 278.92074219 147.57974609 278.92074219 146.4296875 277.45703125 C137.84711798 266.6103483 128.81821186 256.21403558 119.36083984 246.12695312 C117.58761092 244.22755114 115.82851036 242.31566309 114.0703125 240.40234375 C106.8110599 232.53377209 99.36189744 225.05590239 91.40332031 217.89892578 C88.91087387 215.63104345 86.46850337 213.31121158 84.01977539 210.99633789 C77.46694811 204.81338167 70.75393808 198.97407635 63.70703125 193.35546875 C62.51660172 192.37567188 61.32791342 191.39375707 60.140625 190.41015625 C30.7392623 166.1154439 -1.22090311 145.69507538 -34.79833984 127.69677734 C-37.06971277 126.47550871 -39.33315018 125.2410613 -41.59375 124 C-48.12939878 120.43006675 -54.69119289 117.21789958 -61.6171875 114.453125 C-65.28657349 112.94787323 -68.7743392 111.18244948 -72.29296875 109.35546875 C-71.14829845 102.69200779 -69.52889535 96.55377306 -66.98046875 90.29296875 C-66.63999512 89.4515332 -66.29952148 88.61009766 -65.94873047 87.74316406 C-57.02555064 66.33530868 -45.73959995 44.80107575 -30.29296875 27.35546875 C-29.47441406 26.42734375 -28.65585937 25.49921875 -27.8125 24.54296875 C-22.45032951 18.58676165 -16.88293587 12.84882664 -11.23046875 7.16796875 C-10.57481934 6.50764648 -9.91916992 5.84732422 -9.24365234 5.16699219 C-8.32253662 4.24901855 -8.32253662 4.24901855 -7.3828125 3.3125 C-6.83488037 2.7656958 -6.28694824 2.2188916 -5.72241211 1.65551758 C-3.57015067 -0.30191917 -2.87499681 -0.80813368 0 0 Z " fill="#010101" transform="translate(672.29296875,238.64453125)"/>
<path d="M0 0 C1.84326155 2.05752101 3.44680631 4.08274459 5.0625 6.3125 C5.83110352 7.35821167 5.83110352 7.35821167 6.61523438 8.42504883 C23.06763958 31.10002308 37.88749518 54.71655535 50 80 C50.50225098 81.03568115 50.50225098 81.03568115 51.01464844 82.09228516 C64 108.88600352 64 108.88600352 64 114 C37.82398363 123.61099348 10.29667918 130.16837688 -16.921875 136.0859375 C-20.22011062 136.80677361 -23.44942233 137.66521051 -26.6875 138.625 C-32.79527887 140.3481978 -39.04406534 141.18608064 -45.30859375 142.12109375 C-49.41703959 142.73995443 -53.50720561 143.43188087 -57.59765625 144.16015625 C-77.64830751 147.70496966 -97.72238339 150.17982652 -118 152 C-119.0194873 152.09248016 -119.0194873 152.09248016 -120.05957031 152.18682861 C-140.53973342 154.01748947 -161.01173967 154.19959359 -181.5625 154.25 C-183.41325134 154.2580365 -183.41325134 154.2580365 -185.3013916 154.26623535 C-197.79691206 154.30744447 -210.10424088 154.23873368 -222.49145508 152.49023438 C-226.47395105 151.93377679 -230.44298882 151.61080827 -234.45141602 151.31689453 C-246.45715401 150.4345654 -258.20815495 148.66938424 -270.04785156 146.52783203 C-272.96359978 146.00650821 -275.88291475 145.51364626 -278.8046875 145.02734375 C-290.16088012 143.10421992 -301.04450519 140.5494438 -312 137 C-313.08667969 136.6596875 -314.17335938 136.319375 -315.29296875 135.96875 C-321.31421883 134.03696472 -327.14440559 131.7847095 -332.95703125 129.296875 C-335.09029288 128.38770573 -337.23468342 127.50441773 -339.38671875 126.640625 C-341.02060547 125.98320313 -341.02060547 125.98320313 -342.6875 125.3125 C-343.68136719 124.91675781 -344.67523438 124.52101563 -345.69921875 124.11328125 C-348 123 -348 123 -349 121 C-348.11143311 120.9498877 -347.22286621 120.89977539 -346.30737305 120.84814453 C-250.47258817 115.41132198 -164.66328477 93.96867703 -4.7890625 1.23046875 C-3 0 -3 0 0 0 Z " fill="#020101" transform="translate(779,556)"/>
<path d="M0 0 C41.73058112 1.66922324 87.79528962 42.35280509 118 68 C118.53689453 68.45342773 119.07378906 68.90685547 119.62695312 69.37402344 C152.52979143 97.23030238 152.52979143 97.23030238 161 109 C159.60321362 112.3056384 158.091113 113.9870806 155.2109375 116.1015625 C154.44209229 116.66931396 153.67324707 117.23706543 152.88110352 117.82202148 C152.05408936 118.41700439 151.2270752 119.0119873 150.375 119.625 C149.52413818 120.24383057 148.67327637 120.86266113 147.79663086 121.50024414 C140.08733066 127.04936036 132.15185048 132.13238078 124 137 C122.97777344 137.62261719 121.95554687 138.24523437 120.90234375 138.88671875 C115.61462328 142.05365766 110.22030902 144.94315196 104.69921875 147.6796875 C104.00471115 148.02519653 103.31020355 148.37070557 102.59465027 148.72668457 C101.13035097 149.45467646 99.66566879 150.18189867 98.20062256 150.90838623 C96.07614367 151.96222911 93.95323403 153.01917482 91.83056641 154.07666016 C74.44441796 162.72464899 56.9640427 171.07331302 39.125 178.75 C37.9898143 179.23883667 37.9898143 179.23883667 36.83169556 179.73754883 C9.45045247 191.49635112 9.45045247 191.49635112 -1.75 194.875 C-2.4203125 195.08640625 -3.090625 195.2978125 -3.78125 195.515625 C-6.63654886 196.39505705 -8.99348901 197 -12 197 C-14.2038153 190.56666354 -14.66682494 184.21703973 -15.11328125 177.45703125 C-15.19757889 176.19864944 -15.28187653 174.94026764 -15.36872864 173.64375305 C-16.37529441 157.50220086 -16.26223271 141.33970932 -16.19561768 125.17419434 C-16.18470756 121.83208976 -16.18515245 118.49002563 -16.18575573 115.1479063 C-16.18548129 111.86608269 -16.17995947 108.58428435 -16.17275429 105.30246925 C-16.16963105 103.76664226 -16.16761559 102.23081251 -16.16686058 100.69498253 C-16.15226354 86.56776893 -15.51572721 72.52963976 -13.75 58.5 C-13.62431641 57.49952637 -13.49863281 56.49905273 -13.36914062 55.46826172 C-11.51934062 41.54048349 -8.83850636 27.64956211 -4.68261719 14.21875 C-3.55712733 10.56050544 -2.61438504 6.85514266 -1.6484375 3.15234375 C-1 1 -1 1 0 0 Z " fill="#030303" transform="translate(582,405)"/>
<path d="M0 0 C0.6512384 0.00595688 1.30247681 0.01191376 1.97344971 0.01805115 C4.11990722 0.04285264 6.26452122 0.09684693 8.41040039 0.15185547 C9.91668805 0.17672544 11.42300202 0.20004537 12.92933655 0.22189331 C16.08950185 0.27195436 19.24900068 0.33553494 22.40869141 0.40966797 C26.41905754 0.50344169 30.42932047 0.57210775 34.44032955 0.63138008 C37.55584234 0.67890537 40.67111951 0.73606956 43.78640938 0.79635239 C45.26245114 0.82457586 46.73853075 0.85089675 48.21464348 0.87512589 C77.86173997 1.39423449 77.86173997 1.39423449 88.00805664 10.45654297 C97.74897257 20.82016585 98.90248396 34.85750664 98.63305664 48.32763672 C98.07143739 60.83068534 93.71463953 71.40563694 84.69555664 80.14404297 C73.99496515 88.62445882 63.18293855 89.12575851 50.15649414 88.98779297 C48.42965783 88.98607862 46.70281892 88.98615083 44.97598267 88.98791504 C41.38371387 88.98627278 37.79207753 88.96776098 34.19995117 88.93603516 C29.59070458 88.89605993 24.98227216 88.89203102 20.37288475 88.89949799 C16.81959536 88.90255978 13.26649005 88.89048048 9.71324539 88.87336731 C8.01234718 88.86633265 6.31142815 88.86321334 4.61051559 88.86405945 C2.24573285 88.86226897 -0.1180547 88.84096311 -2.48266602 88.81396484 C-3.18598053 88.81689545 -3.88929504 88.81982605 -4.61392212 88.82284546 C-6.5585022 88.78845215 -6.5585022 88.78845215 -9.67944336 88.39404297 C-12.12904202 84.71964497 -11.98202268 81.93310653 -11.98583984 77.68139648 C-11.99416336 76.89734436 -12.00248688 76.11329224 -12.01106262 75.30548096 C-12.0351767 72.71125336 -12.0439358 70.11727703 -12.05053711 67.52294922 C-12.05950145 65.72077864 -12.06862326 63.91860884 -12.07789612 62.11643982 C-12.09439184 58.33778066 -12.10208745 54.55921018 -12.10498047 50.78051758 C-12.11036894 45.93678849 -12.14806523 41.09389155 -12.19372463 36.25039768 C-12.22345337 32.52806039 -12.23070309 28.80592464 -12.23170662 25.08347893 C-12.23591626 23.29765951 -12.24838033 21.51183989 -12.26922417 19.72613716 C-12.29605675 17.22882812 -12.29133902 14.73346316 -12.27880859 12.23608398 C-12.29364288 11.4977684 -12.30847717 10.75945282 -12.32376099 9.99876404 C-12.27229041 6.39975258 -11.9329533 4.68886852 -9.55944824 1.92854309 C-6.08732557 0.07855572 -3.92433608 -0.06900087 0 0 Z " fill="#070606" transform="translate(755.679443359375,822.60595703125)"/>
<path d="M0 0 C1.70913623 0.03728713 3.41828453 0.07402301 5.12744141 0.11035156 C6.10328186 0.13794556 7.07912231 0.16553955 8.08453369 0.19396973 C11.81456998 0.28373383 15.54401798 0.32238296 19.27490234 0.35058594 C26.02366243 0.40283608 32.77189787 0.47466212 39.52030754 0.56103134 C43.46247807 0.61121029 47.40461121 0.6577254 51.34692383 0.6953125 C55.22040716 0.73230999 59.09367605 0.77863485 62.96697426 0.83150101 C64.42564506 0.84987618 65.88436028 0.86504468 67.34309959 0.87678146 C86.80492577 1.03951883 86.80492577 1.03951883 94.38671875 7.2734375 C100.49928239 13.92783503 101.83260626 21.40433641 101.63671875 30.20703125 C100.91158606 39.10123696 99.51538168 48.41764507 93.38671875 55.2734375 C87.25867574 60.22802547 81.28561577 61.56866179 73.54541016 61.59228516 C72.40292816 61.60735359 72.40292816 61.60735359 71.23736572 61.62272644 C68.73767807 61.65344159 66.23809696 61.67056082 63.73828125 61.6875 C61.99806815 61.70622106 60.25786403 61.72579517 58.51766968 61.7461853 C53.95079864 61.79741346 49.3838982 61.83708892 44.81689453 61.87432861 C40.15129377 61.91442679 35.48581432 61.96549257 30.8203125 62.015625 C21.67586659 62.11227391 12.53135203 62.19671388 3.38671875 62.2734375 C3.36689941 62.98999512 3.34708008 63.70655273 3.32666016 64.44482422 C3.23162356 67.6797438 3.12185856 70.91399844 3.01171875 74.1484375 C2.98078125 75.27636719 2.94984375 76.40429688 2.91796875 77.56640625 C2.85996094 79.18095703 2.85996094 79.18095703 2.80078125 80.828125 C2.76936035 81.82312012 2.73793945 82.81811523 2.70556641 83.84326172 C2.38671875 86.2734375 2.38671875 86.2734375 0.38671875 88.2734375 C-2.14453125 88.57421875 -2.14453125 88.57421875 -5.11328125 88.5859375 C-6.09296875 88.60269531 -7.07265625 88.61945313 -8.08203125 88.63671875 C-8.91734375 88.51683594 -9.75265625 88.39695312 -10.61328125 88.2734375 C-13.06287992 84.5990395 -12.91586057 81.81250106 -12.91967773 77.56079102 C-12.92800125 76.77673889 -12.93632477 75.99268677 -12.94490051 75.18487549 C-12.96901459 72.59064789 -12.97777369 69.99667157 -12.984375 67.40234375 C-12.99333934 65.60017317 -13.00246115 63.79800337 -13.01173401 61.99583435 C-13.02822973 58.21717519 -13.03592534 54.43860471 -13.03881836 50.65991211 C-13.04420683 45.81618303 -13.08190312 40.97328608 -13.12756252 36.12979221 C-13.15729126 32.40745492 -13.16454098 28.68531917 -13.16554451 24.96287346 C-13.16975415 23.17705404 -13.18221822 21.39123442 -13.20306206 19.60553169 C-13.22989464 17.10822265 -13.22517691 14.61285769 -13.21264648 12.11547852 C-13.22748077 11.37716293 -13.24231506 10.63884735 -13.25759888 9.87815857 C-13.20403052 6.13246259 -12.89758956 4.57491763 -10.28878784 1.80854797 C-6.7904126 -0.19869525 -3.90948415 -0.17212838 0 0 Z " fill="#080808" transform="translate(338.61328125,822.7265625)"/>
<path d="M0 0 C0.80093079 -0.00540298 1.60186157 -0.01080597 2.42706299 -0.01637268 C5.05519398 -0.02880538 7.68221782 -0.0124075 10.31030273 0.00561523 C12.14680539 0.00546013 13.98330838 0.00396933 15.81980896 0.00120544 C19.66045683 -0.00017605 23.50073011 0.01233881 27.34130859 0.03515625 C32.25630565 0.06356016 37.17068167 0.06079476 42.08572483 0.04806614 C45.87506893 0.04110145 49.66427025 0.04890693 53.45359612 0.06132317 C55.26562896 0.06582857 57.07767718 0.06618244 58.88971138 0.06225777 C61.42418824 0.05933726 63.9578179 0.07589138 66.4921875 0.09765625 C67.23572983 0.0931546 67.97927216 0.08865295 68.74534607 0.08401489 C73.44131094 0.15079359 76.69771658 1.00320165 80.68139648 3.50170898 C82.38485394 6.90862389 81.90802014 10.68438415 81.93139648 14.43920898 C81.95202148 15.26356445 81.97264648 16.08791992 81.99389648 16.93725586 C82.00163086 18.12738281 82.00163086 18.12738281 82.00952148 19.34155273 C82.01886719 20.06721436 82.02821289 20.79287598 82.0378418 21.54052734 C81.57928666 24.06352282 80.67549225 24.93918476 78.68139648 26.50170898 C76.52514648 26.90014648 76.52514648 26.90014648 74.18139648 26.87670898 C73.40795898 26.88444336 72.63452148 26.89217773 71.83764648 26.90014648 C69.1589518 26.40517029 68.26469136 25.69821648 66.68139648 23.50170898 C66.49389648 19.81420898 66.49389648 19.81420898 66.68139648 16.50170898 C63.44991316 15.42454788 61.09604167 15.36837883 57.69702148 15.35644531 C56.46564453 15.35006546 55.23426758 15.34368561 53.96557617 15.33711243 C52.62085001 15.33558393 51.27612332 15.33446987 49.93139648 15.33374023 C48.5528154 15.33052692 47.17423466 15.32716279 45.7956543 15.32365417 C42.9072999 15.31766823 40.0189754 15.31581379 37.13061523 15.31640625 C33.42824549 15.31650799 29.72606704 15.30284176 26.02374268 15.28563404 C23.17731849 15.27452172 20.33094073 15.27248678 17.48449707 15.27301598 C16.11933735 15.27183524 14.75417646 15.2674082 13.38903809 15.25968361 C11.48130763 15.24989731 9.57352109 15.2540225 7.66577148 15.25878906 C6.58005859 15.25736404 5.4943457 15.25593903 4.37573242 15.25447083 C1.45819233 15.30648254 1.45819233 15.30648254 -1.31860352 17.50170898 C-2.37260069 20.66370049 -2.55306264 23.11631085 -2.63110352 26.43920898 C-2.66848633 27.47948242 -2.70586914 28.51975586 -2.74438477 29.59155273 C-2.20257729 33.2947323 -1.24502924 34.22095763 1.68139648 36.50170898 C4.67896497 37.09034474 4.67896497 37.09034474 8.05126953 36.98413086 C9.98929695 36.99434265 9.98929695 36.99434265 11.96647644 37.00476074 C12.99888993 36.9962484 12.99888993 36.9962484 14.05216026 36.98756409 C16.21871033 36.97025449 18.38393123 36.97783604 20.55049133 36.99182129 C25.93422508 37.02143106 31.31770377 37.00833559 36.70147705 36.99664307 C41.24762001 36.98839929 45.79318188 36.99655318 50.33924294 37.02577209 C52.46040278 37.03280899 54.58050732 37.01625756 56.70158386 36.99865723 C64.68431942 37.04021268 72.20072733 37.27310854 78.29008484 43.01989746 C83.5846672 49.13455622 82.93055359 54.34820113 82.99389648 62.12670898 C83.03740234 63.87274414 83.03740234 63.87274414 83.08178711 65.65405273 C83.13123381 72.37119714 83.1481029 78.18686797 78.68139648 83.50170898 C71.0238103 89.25623426 60.75798882 88.06348554 51.69702148 87.99780273 C49.95066264 87.99795792 48.20430345 87.99945008 46.45794678 88.00221252 C42.81336077 88.00359134 39.1691708 87.99112066 35.5246582 87.96826172 C30.85847301 87.93979382 26.19294088 87.94264416 21.5267067 87.95535183 C17.92698604 87.96231023 14.32741596 87.9545193 10.72771454 87.9420948 C9.00696134 87.93758782 7.28619195 87.93723691 5.56543732 87.9411602 C3.16267264 87.94407622 0.76080541 87.92755067 -1.6418457 87.90576172 C-2.34843826 87.91026337 -3.05503082 87.91476501 -3.78303528 87.91940308 C-9.07447443 87.83982374 -12.11661507 86.38912766 -16.06860352 83.00170898 C-18.79671953 79.72796977 -18.51366957 76.06682117 -18.56860352 72.00170898 C-18.59438477 70.85702148 -18.62016602 69.71233398 -18.64672852 68.53295898 C-18.31860352 65.50170898 -18.31860352 65.50170898 -17.08422852 63.61889648 C-14.85908575 62.21095217 -13.44098693 62.10048515 -10.81860352 62.12670898 C-9.65844727 62.11510742 -9.65844727 62.11510742 -8.47485352 62.10327148 C-5.80443419 62.59671853 -4.96061834 63.37206552 -3.31860352 65.50170898 C-2.60452018 67.48527381 -1.9324261 69.48486336 -1.31860352 71.50170898 C0.45414709 73.27445959 3.02253468 72.6385565 5.42285156 72.64697266 C6.65115189 72.65335251 7.87945221 72.65973236 9.14497375 72.66630554 C10.49695802 72.66783444 11.8489428 72.66894828 13.20092773 72.66967773 C14.57997167 72.67288935 15.95901526 72.67625334 17.33805847 72.67976379 C20.23416941 72.68576257 23.13025047 72.68760302 26.02636719 72.68701172 C29.7354222 72.68691026 33.44428504 72.7005416 37.15329456 72.71778393 C40.0040525 72.72891211 42.85476418 72.73093065 45.70554161 72.73040199 C47.07266589 72.73158168 48.43979138 72.73600284 49.8068943 72.74373436 C51.72182369 72.75354643 53.6368092 72.7493888 55.55175781 72.74462891 C57.18604485 72.74676643 57.18604485 72.74676643 58.85334778 72.74894714 C61.65446978 72.50406301 63.30229897 71.95076606 65.68139648 70.50170898 C65.73581305 68.60619877 65.77437683 66.71022979 65.80639648 64.81420898 C65.82959961 63.7584668 65.85280273 62.70272461 65.87670898 61.61499023 C65.66877739 58.30056055 65.479029 56.30621218 63.68139648 53.50170898 C59.05780543 51.8728775 54.89792934 51.23739797 50.01513672 51.15454102 C48.73368271 51.12756134 47.4522287 51.10058167 46.13194275 51.07278442 C45.45709272 51.06266453 44.7822427 51.05254463 44.08694267 51.04211807 C41.95468881 51.00897273 39.82309475 50.96249821 37.69117737 50.912323 C31.63462789 50.77161254 25.5778254 50.65048923 19.52050781 50.5480957 C15.80316332 50.48432823 12.0866162 50.40176136 8.36992073 50.30770493 C6.95994491 50.27580835 5.54978655 50.25109915 4.13955498 50.23389053 C2.16549359 50.20943816 0.19180566 50.15905249 -1.78173828 50.10766602 C-3.46215965 50.07674362 -3.46215965 50.07674362 -5.17652893 50.04519653 C-9.75382538 49.25345733 -12.87368688 46.99822978 -16.06860352 43.68920898 C-19.69642813 37.3405159 -19.68398029 30.6902107 -19.69360352 23.56420898 C-19.7180957 22.61352539 -19.74258789 21.6628418 -19.76782227 20.68334961 C-19.79237471 14.74574922 -19.3976906 9.12531875 -15.31860352 4.50170898 C-10.14542944 1.00751447 -6.2780192 -0.08185329 0 0 Z " fill="#070706" transform="translate(1083.318603515625,823.498291015625)"/>
<path d="M0 0 C0.66087616 0.00420456 1.32175232 0.00840912 2.00265503 0.01274109 C4.17827938 0.03314126 6.35121429 0.08998655 8.52612305 0.1484375 C10.0467813 0.17261866 11.56746965 0.19496952 13.08818054 0.21557617 C16.27366989 0.26413721 19.45818517 0.32986423 22.64306641 0.40869141 C26.70786064 0.50863705 30.77225593 0.5737459 34.83790302 0.62683105 C37.97900447 0.67042664 41.11969339 0.72881081 44.26045799 0.79193115 C45.75817505 0.82102153 47.25596674 0.8465157 48.75380898 0.8682251 C63.69254021 1.10610804 63.69254021 1.10610804 70.2253418 4.5234375 C72.94709525 8.60606768 72.55657158 11.79485991 72.5378418 16.5859375 C72.55395508 17.41416016 72.57006836 18.24238281 72.58666992 19.09570312 C72.58731445 19.88783203 72.58795898 20.67996094 72.58862305 21.49609375 C72.591604 22.22062744 72.59458496 22.94516113 72.59765625 23.69165039 C72.2253418 25.5234375 72.2253418 25.5234375 69.2253418 27.5234375 C66.81518555 27.7890625 66.81518555 27.7890625 64.1628418 27.7734375 C63.28499023 27.77859375 62.40713867 27.78375 61.50268555 27.7890625 C59.2253418 27.5234375 59.2253418 27.5234375 57.2253418 25.5234375 C56.2353418 22.0584375 56.2353418 22.0584375 55.2253418 18.5234375 C38.7253418 18.5234375 22.2253418 18.5234375 5.2253418 18.5234375 C5.2253418 25.1234375 5.2253418 31.7234375 5.2253418 38.5234375 C6.74933594 38.53802002 8.27333008 38.55260254 9.84350586 38.56762695 C15.49429871 38.62557092 21.14469146 38.70280462 26.79516602 38.78588867 C29.24138905 38.81915627 31.68768919 38.84718241 34.1340332 38.86987305 C37.64917885 38.90338458 41.16361675 38.95570026 44.6784668 39.01171875 C45.7733844 39.01810867 46.868302 39.0244986 47.99639893 39.03108215 C49.01715515 39.05087631 50.03791138 39.07067047 51.08959961 39.09106445 C52.43529022 39.10771904 52.43529022 39.10771904 53.8081665 39.12471008 C56.69942835 39.60164089 58.09606604 40.54108883 60.2253418 42.5234375 C60.7565918 44.4609375 60.7565918 44.4609375 60.7253418 46.5234375 C60.74081055 47.544375 60.74081055 47.544375 60.7565918 48.5859375 C59.99354224 51.36882411 58.65535185 52.03619654 56.2253418 53.5234375 C53.8081665 53.88420105 53.8081665 53.88420105 51.08959961 53.86401367 C49.55846527 53.86367378 49.55846527 53.86367378 47.99639893 53.86332703 C46.90148132 53.84784317 45.80656372 53.83235931 44.6784668 53.81640625 C42.98895905 53.81003899 42.98895905 53.81003899 41.26531982 53.80354309 C37.66841717 53.78675247 34.07207508 53.74909849 30.4753418 53.7109375 C28.03654781 53.69589121 25.59774503 53.68220271 23.15893555 53.66992188 C17.18085502 53.63684751 11.20319345 53.58506158 5.2253418 53.5234375 C5.2253418 60.4534375 5.2253418 67.3834375 5.2253418 74.5234375 C30.4703418 74.0284375 30.4703418 74.0284375 56.2253418 73.5234375 C57.2153418 71.2134375 58.2053418 68.9034375 59.2253418 66.5234375 C61.64021123 64.10856807 62.35241968 64.227245 65.6628418 64.2109375 C66.44530273 64.19417969 67.22776367 64.17742188 68.03393555 64.16015625 C70.2253418 64.5234375 70.2253418 64.5234375 71.98706055 65.515625 C73.99735948 68.77522643 73.65641644 72.25066525 73.6003418 75.9609375 C73.61194336 76.72470703 73.62354492 77.48847656 73.63549805 78.27539062 C73.61763323 81.6965024 73.53550595 83.94936174 71.8894043 86.99609375 C68.44491441 90.15758564 64.34952501 89.68344434 59.95581055 89.70043945 C59.21891998 89.70701065 58.48202942 89.71358185 57.72280884 89.72035217 C55.28615212 89.74005244 52.84955679 89.75173746 50.4128418 89.76171875 C49.1648732 89.76783204 49.1648732 89.76783204 47.89169312 89.77406883 C43.49216969 89.7949108 39.09267732 89.80922332 34.69311523 89.81860352 C30.14312686 89.82969311 25.59362416 89.86412719 21.04380798 89.90377522 C17.54885934 89.92987087 14.05402799 89.93828879 10.55899048 89.94188499 C8.88120221 89.9467655 7.20341967 89.95842097 5.52572632 89.97692299 C3.1817111 90.00117649 0.83897434 90.00037602 -1.50512695 89.9934082 C-2.20028412 90.00621826 -2.89544128 90.01902832 -3.61166382 90.03222656 C-6.57162223 90.0000749 -8.35984986 89.8562493 -10.70275879 87.97647095 C-12.18102981 84.59345924 -12.20922563 81.43219653 -12.19458008 77.80493164 C-12.20304962 77.03209335 -12.21151917 76.25925507 -12.22024536 75.46299744 C-12.2436212 72.91136159 -12.24463743 70.36032852 -12.2434082 67.80859375 C-12.25050937 66.03266661 -12.2582083 64.25674177 -12.26647949 62.4808197 C-12.27992557 58.75936505 -12.28149249 55.03812254 -12.27563477 51.31665039 C-12.26973802 46.55034846 -12.30032806 41.78506493 -12.34075165 37.01896 C-12.36661558 33.35146105 -12.36950728 29.68420775 -12.36585999 26.01663017 C-12.36755242 24.25956093 -12.37720686 22.50248049 -12.39500427 20.74550056 C-12.41716976 18.28675526 -12.40750649 15.83007682 -12.38989258 13.37133789 C-12.40978745 12.28564011 -12.40978745 12.28564011 -12.43008423 11.17800903 C-12.36829277 7.46116662 -11.83913661 5.61360753 -9.65962219 2.56565857 C-6.12666491 0.06473314 -4.29899671 -0.07156661 0 0 Z " fill="#080808" transform="translate(876.774658203125,821.4765625)"/>
<path d="M0 0 C1.12148438 -0.03996094 2.24296875 -0.07992187 3.3984375 -0.12109375 C7.67253027 0.61885209 8.80085994 2.18128229 11.625 5.4375 C13.00789315 7.8785317 14.2424434 10.24143718 15.421875 12.7734375 C16.11495709 14.20877152 16.80966292 15.64332243 17.50585938 17.07714844 C17.85640381 17.80397827 18.20694824 18.53080811 18.56811523 19.27966309 C20.21025455 22.63241161 21.95005123 25.93079221 23.703125 29.2265625 C24.0419017 29.86481461 24.38067841 30.50306671 24.72972107 31.16065979 C25.77619649 33.1289858 26.82538277 35.09584783 27.875 37.0625 C28.61533812 38.45270619 29.35565356 39.84292446 30.09594727 41.2331543 C34.55067386 49.59061549 39.03421263 57.93213215 43.5625 66.25 C44.05202148 67.14992676 44.54154297 68.04985352 45.04589844 68.97705078 C45.49352539 69.79544434 45.94115234 70.61383789 46.40234375 71.45703125 C46.97843384 72.51047729 46.97843384 72.51047729 47.56616211 73.58520508 C48.51503257 75.24512673 49.56442033 76.84663049 50.625 78.4375 C51 81.9375 51 81.9375 50.625 85.4375 C48.46387817 88.01422219 46.97667362 88.37015824 43.6875 89 C40.16581377 88.35315967 38.95917262 87.21297461 36.85546875 84.3671875 C34.97451184 81.41736936 33.27694582 78.38437233 31.640625 75.29296875 C30.76111255 73.48002853 30.76111255 73.48002853 29.625 72.4375 C27.72256238 72.34358704 25.81661541 72.32006342 23.91186523 72.32397461 C22.08007973 72.32408791 22.08007973 72.32408791 20.21128845 72.32420349 C18.86872314 72.32931089 17.52615825 72.33452689 16.18359375 72.33984375 C14.81738842 72.34170801 13.45118243 72.34313187 12.0849762 72.34413147 C8.48298305 72.34795606 4.88103 72.35778583 1.27905273 72.36883545 C-2.39403745 72.37905084 -6.06713409 72.38362936 -9.74023438 72.38867188 C-16.95184123 72.39940816 -24.163415 72.41648386 -31.375 72.4375 C-31.67913818 73.21254883 -31.98327637 73.98759766 -32.29663086 74.78613281 C-33.35134359 77.3793364 -34.56674989 79.74879235 -35.9375 82.1875 C-36.58912109 83.35539063 -36.58912109 83.35539063 -37.25390625 84.546875 C-38.375 86.4375 -38.375 86.4375 -39.375 87.4375 C-41.58984375 87.640625 -41.58984375 87.640625 -44.3125 87.6875 C-45.20839844 87.71328125 -46.10429688 87.7390625 -47.02734375 87.765625 C-47.80207031 87.65734375 -48.57679688 87.5490625 -49.375 87.4375 C-51.74062429 83.88906357 -51.8297578 82.62127178 -51.375 78.4375 C-50.25921178 76.0406216 -49.12185464 73.92692022 -47.75 71.6875 C-46.91635264 70.26863762 -46.08584596 68.84792715 -45.2578125 67.42578125 C-44.79793945 66.63896973 -44.33806641 65.8521582 -43.86425781 65.04150391 C-41.00747709 60.04635256 -38.33236837 54.95215684 -35.625 49.875 C-30.47869098 40.26468428 -25.2133888 30.73158336 -19.81347656 21.26147461 C-19.3181543 20.39272705 -18.82283203 19.52397949 -18.3125 18.62890625 C-17.83039062 17.78602051 -17.34828125 16.94313477 -16.8515625 16.07470703 C-14.74593348 12.3139589 -12.7534967 8.49389489 -10.76953125 4.66772461 C-7.97317741 0.19561461 -4.92024414 0.09570269 0 0 Z " fill="#070606" transform="translate(616.375,823.5625)"/>
<path d="M0 0 C1.12148437 -0.0309375 2.24296875 -0.061875 3.3984375 -0.09375 C7.63673263 0.6861784 8.79876107 2.28826579 11.625 5.5 C13.546875 8.62426758 13.546875 8.62426758 15.375 12.14453125 C15.87754555 13.10184898 15.87754555 13.10184898 16.39024353 14.07850647 C17.47682425 16.15227282 18.55071694 18.23234095 19.625 20.3125 C20.38114961 21.75919823 21.13840395 23.20531955 21.89672852 24.65087891 C23.0449967 26.84010735 24.19260994 29.02964904 25.33680725 31.2210083 C28.68724374 37.63766113 32.10806626 44.01363956 35.5625 50.375 C36.08094482 51.33422363 36.59938965 52.29344727 37.13354492 53.28173828 C39.59134711 57.81626375 42.08349462 62.32589879 44.6484375 66.80078125 C45.12031494 67.62916504 45.59219238 68.45754883 46.07836914 69.31103516 C46.95336609 70.84098313 47.83730059 72.36587181 48.73217773 73.88427734 C52.46083283 80.40805321 52.46083283 80.40805321 51.625 84.5 C50.10339922 86.69517564 49.11228315 87.36586026 46.5390625 88.07421875 C44.02632031 88.19856947 42.05703704 88.17651735 39.625 87.5 C37.30230684 85.14314959 36.02991676 82.46960837 34.625 79.5 C34.026875 78.55125 33.42875 77.6025 32.8125 76.625 C31.625 74.5 31.625 74.5 31.625 72.5 C23.87114942 72.40727926 16.11742894 72.33622492 8.36316299 72.29275131 C4.76241714 72.27188487 1.16205084 72.24358579 -2.43847656 72.19824219 C-5.91387913 72.15474875 -9.38891688 72.13085579 -12.86457062 72.12049103 C-14.83445784 72.10951385 -16.80419847 72.078293 -18.77386475 72.04681396 C-19.97480774 72.04651184 -21.17575073 72.04620972 -22.41308594 72.04589844 C-23.47009705 72.03701599 -24.52710815 72.02813354 -25.6161499 72.01898193 C-29.08120045 72.62312926 -30.1872131 73.80819931 -32.375 76.5 C-33.48810685 78.19703175 -34.55138354 79.92779346 -35.5625 81.6875 C-38.30555556 86.43055556 -38.30555556 86.43055556 -39.375 87.5 C-41.37109375 87.66796875 -41.37109375 87.66796875 -43.8125 87.6875 C-44.61558594 87.70167969 -45.41867188 87.71585938 -46.24609375 87.73046875 C-48.375 87.5 -48.375 87.5 -50.375 85.5 C-50.98299945 79.86309429 -49.59794488 76.06244793 -46.90234375 71.23828125 C-46.36124718 70.23041817 -46.36124718 70.23041817 -45.80921936 69.20219421 C-44.65710577 67.06467814 -43.4850926 64.93883671 -42.3125 62.8125 C-41.55144469 61.40499346 -40.79166786 59.99679484 -40.03320312 58.58789062 C-36.10769233 51.32627329 -32.06169631 44.14581136 -27.8605957 37.03979492 C-24.80097138 31.80901894 -21.96583163 26.45068733 -19.09033203 21.1171875 C-17.62773499 18.40871145 -16.15790775 15.70424237 -14.6875 13 C-14.21151367 12.11441406 -13.73552734 11.22882812 -13.24511719 10.31640625 C-12.78911133 9.47980469 -12.33310547 8.64320313 -11.86328125 7.78125 C-11.45634033 7.02908203 -11.04939941 6.27691406 -10.63012695 5.50195312 C-7.65530974 0.75705891 -5.62463688 0.05148409 0 0 Z " fill="#060606" transform="translate(171.375,823.5)"/>
<path d="M0 0 C10.46732072 3.16564867 19.09374301 7.65991563 28 14 C28.74475586 14.52835449 29.48951172 15.05670898 30.25683594 15.60107422 C40.57210557 22.9658145 50.43908126 30.68321779 60 39 C61.99241723 40.67603223 63.99522012 42.33872746 66 44 C62.34342411 47.90541659 58.57696435 50.83498055 54.0625 53.6875 C53.46759766 54.07744141 52.87269531 54.46738281 52.25976562 54.86914062 C48.61908261 57.19679042 45.19199028 58.80320278 41 60 C41.6290625 61.11375 42.258125 62.2275 42.90625 63.375 C48.5669144 73.4497605 53.91717757 83.62305999 59 94 C59.60972656 95.05703125 60.21945312 96.1140625 60.84765625 97.203125 C62 100 62 100 61.484375 102.17578125 C59.63613271 104.44717375 57.77270028 105.70063574 55.25 107.1875 C54.40953125 107.69667969 53.5690625 108.20585938 52.703125 108.73046875 C49.77940817 110.10360165 47.19396391 110.61242836 44 111 C39.11553021 100.89619134 34.37424606 90.74696256 29.9375 80.4375 C29.54377197 79.52782471 29.15004395 78.61814941 28.74438477 77.6809082 C28.38401123 76.83616943 28.0236377 75.99143066 27.65234375 75.12109375 C27.33257568 74.3727124 27.01280762 73.62433105 26.68334961 72.85327148 C26 71 26 71 26 69 C20.33760708 70.64651142 15.43676416 72.76759301 10.34375 75.7265625 C0.63803681 81 0.63803681 81 -4 81 C-6.91031254 72.38810041 -7.5412579 64.36582228 -7.5 55.3125 C-7.49989929 54.63189514 -7.49979858 53.95129028 -7.49969482 53.25006104 C-7.44946622 35.75173443 -5.86454471 16.55963051 0 0 Z " fill="#FAFAFA" transform="translate(600,439)"/>
<path d="M0 0 C8.70375 -0.061875 17.4075 -0.12375 26.375 -0.1875 C29.10313965 -0.21481201 31.8312793 -0.24212402 34.64208984 -0.27026367 C36.83170124 -0.27903476 39.02131757 -0.28667722 41.2109375 -0.29296875 C42.32573486 -0.30831665 43.44053223 -0.32366455 44.58911133 -0.33947754 C53.99614487 -0.34259176 62.49530781 0.92477299 70 7 C75.47395251 12.63035115 77.1744304 18.66533879 77.4375 26.3125 C77.21125781 34.44779221 75.42077509 41.72927268 69.9375 47.9375 C63.32396404 53.89396759 53.56011498 56.13559523 44.8425293 56.11352539 C43.32073059 56.11334412 43.32073059 56.11334412 41.76818848 56.11315918 C40.71417847 56.10804321 39.66016846 56.10292725 38.57421875 56.09765625 C37.59634399 56.09664917 36.61846924 56.09564209 35.61096191 56.09460449 C31.96979596 56.0893857 28.32864676 56.07542444 24.6875 56.0625 C16.540625 56.041875 8.39375 56.02125 0 56 C0 37.52 0 19.04 0 0 Z " fill="#FBFBFB" transform="translate(761,840)"/>
<path d="M0 0 C1.71411133 1.08520508 1.71411133 1.08520508 3 3 C3.43237305 6.1862793 3.43237305 6.1862793 3.51171875 10.07421875 C3.52966995 10.7580513 3.54762115 11.44188385 3.56611633 12.1464386 C3.62022075 14.32673 3.6541134 16.50680256 3.6875 18.6875 C3.7206732 20.16734817 3.75516287 21.64716745 3.79101562 23.12695312 C3.87594524 26.75109169 3.94275635 30.37530652 4 34 C13.87462603 34.13053818 23.74925391 34.26093551 33.6238842 34.39115143 C38.20872971 34.45161586 42.79357457 34.51212939 47.37841797 34.57275391 C51.8004148 34.63122334 56.2224133 34.68956542 60.64441299 34.74781799 C62.33415919 34.77010024 64.02390478 34.79242891 65.71364975 34.81480408 C68.07456049 34.84605883 70.43547331 34.87715071 72.79638672 34.90820312 C73.85158508 34.92222923 73.85158508 34.92222923 74.92810059 34.9365387 C78.46393334 34.98371221 78.46393334 34.98371221 82 35 C81.98428955 34.01080566 81.9685791 33.02161133 81.95239258 32.00244141 C81.8981654 28.33862423 81.86367664 24.67484263 81.83520508 21.01074219 C81.82010186 19.42376749 81.79961777 17.83683463 81.77368164 16.25 C81.73736405 13.97124927 81.72028977 11.69304942 81.70703125 9.4140625 C81.69154739 8.70255035 81.67606354 7.99103821 81.66011047 7.25796509 C81.65942383 5.25634766 81.65942383 5.25634766 82 2 C85.21436529 -0.14291019 87.17426609 -0.30025791 90.96484375 -0.4609375 C94.03466611 0.23433896 95.08078544 1.5192209 97 4 C97.38964307 6.74885372 97.53766965 9.09582593 97.50170898 11.84204102 C97.50981346 13.02074768 97.50981346 13.02074768 97.51808167 14.2232666 C97.53057553 16.81719784 97.51407579 19.41002068 97.49609375 22.00390625 C97.49624871 23.80704303 97.49773715 25.61018015 97.50050354 27.41331482 C97.50188777 31.19032534 97.48932435 34.96695622 97.46655273 38.74389648 C97.43814758 43.58865497 97.44091057 48.4327836 97.45364285 53.27758884 C97.46059227 56.99990738 97.45281954 60.72207991 97.44038582 64.44437981 C97.43586557 66.23098122 97.43553951 68.01759827 97.43945122 69.80420113 C97.44235677 72.2989131 97.42588939 74.79275181 97.40405273 77.28735352 C97.40855438 78.02769333 97.41305603 78.76803314 97.41769409 79.5308075 C97.34518662 84.50798252 97.34518662 84.50798252 95.62538147 86.95933533 C93.34070038 88.42212233 91.62884489 88.36402796 88.9375 88.3125 C87.62072266 88.30669922 87.62072266 88.30669922 86.27734375 88.30078125 C84 88 84 88 82 86 C81.67 74.78 81.34 63.56 81 52 C55.59 52 30.18 52 4 52 C3.67 62.89 3.34 73.78 3 85 C-1 89 -1 89 -3.03515625 89.49609375 C-8.43724212 89.3399641 -8.43724212 89.3399641 -10.72084045 87.96043396 C-12.7158011 84.90296657 -12.42526942 81.72891713 -12.40405273 78.19555664 C-12.41091599 77.40175095 -12.41777924 76.60794525 -12.42485046 75.79008484 C-12.44316778 73.16326056 -12.43927396 70.53703076 -12.43359375 67.91015625 C-12.43815333 66.08556422 -12.44345823 64.26097391 -12.44947815 62.43638611 C-12.45841904 58.61059598 -12.45597521 54.78501449 -12.44604492 50.95922852 C-12.43455639 46.05504947 -12.4547598 41.15159056 -12.48396206 36.24750614 C-12.5023039 32.47883016 -12.5020356 28.71032737 -12.49632454 24.94161797 C-12.49617106 23.13349841 -12.50223703 21.3253673 -12.51461601 19.51729012 C-12.52948575 16.98901267 -12.51887934 14.46207331 -12.50170898 11.93383789 C-12.51137695 11.18617157 -12.52104492 10.43850525 -12.53100586 9.66818237 C-12.48138665 6.18104224 -12.25680831 4.33242817 -10.09584045 1.53514099 C-6.5745931 -1.04406829 -4.28011833 -0.4755687 0 0 Z " fill="#080707" transform="translate(462,823)"/>
<path d="M0 0 C5.59813191 4.38281096 8.28129443 10.67207007 11.5 16.875 C12.74019016 19.22244404 13.98212998 21.56887376 15.2265625 23.9140625 C15.69704514 24.80357605 15.69704514 24.80357605 16.17703247 25.71105957 C19.30748951 31.61578915 22.57319988 37.4398254 25.875 43.25 C26.41020264 44.19367432 26.94540527 45.13734863 27.49682617 46.10961914 C29.84464475 50.24030446 32.20582348 54.36275797 34.58984375 58.47265625 C35.1614624 59.46120605 35.1614624 59.46120605 35.74462891 60.46972656 C36.72761423 62.16601673 37.71702243 63.85858061 38.70703125 65.55078125 C40 68 40 68 40 70 C44.15098057 68.49936553 45.35804806 66.14686891 47.3984375 62.33984375 C47.71004318 61.76657349 48.02164886 61.19330322 48.34269714 60.60266113 C49.36363022 58.71956998 50.3690405 56.82862553 51.375 54.9375 C52.08327686 53.62634378 52.79284602 52.31588488 53.50366211 51.00610352 C54.96020947 48.32121991 56.41233184 45.63401482 57.86181641 42.9453125 C61.03427055 37.07524203 64.29622017 31.25581283 67.5625 25.4375 C68.10890137 24.45966553 68.65530273 23.48183105 69.21826172 22.47436523 C70.80331115 19.64447329 72.40046122 16.82172328 74 14 C74.61085449 12.9083252 75.22170898 11.81665039 75.85107422 10.69189453 C76.46611816 9.6089209 77.08116211 8.52594727 77.71484375 7.41015625 C78.5500354 5.92914429 78.5500354 5.92914429 79.40209961 4.41821289 C81 2 81 2 84 0 C90.01987353 -0.53748871 90.01987353 -0.53748871 92.9375 1.0625 C94.59983046 4.09380848 94.63344266 6.68331033 94 10 C92.2303381 14.05741434 89.99817691 17.81662563 87.75 21.625 C86.79480469 23.28499023 86.79480469 23.28499023 85.8203125 24.97851562 C84.51338642 27.24741219 83.20022891 29.51273075 81.88085938 31.77441406 C79.70879106 35.49940973 77.56795068 39.24141872 75.43261719 42.98754883 C74.47717939 44.66314705 73.51949369 46.3374655 72.55957031 48.01049805 C67.87244212 56.18330702 63.28482852 64.41137309 58.71875 72.65234375 C51.01350446 86.49324777 51.01350446 86.49324777 48 88 C45.8807365 88.19993052 43.75276554 88.31284056 41.625 88.375 C40.48289062 88.42398438 39.34078125 88.47296875 38.1640625 88.5234375 C35 88 35 88 33.0234375 85.85473633 C30.94312577 82.91975985 29.18300139 79.95900379 27.4609375 76.80078125 C27.13853088 76.21288818 26.81612427 75.62499512 26.48394775 75.01928711 C25.44322049 73.11939909 24.40913687 71.21598187 23.375 69.3125 C22.65335166 67.9927984 21.93118018 66.67338274 21.20849609 65.35424805 C19.7822895 62.75021375 18.35809607 60.14509644 16.93554688 57.5390625 C14.52034116 53.11814759 12.07708109 48.71305137 9.625 44.3125 C8.85282941 42.92449873 8.08069344 41.53647821 7.30859375 40.1484375 C6.93460449 39.47651367 6.56061523 38.80458984 6.17529297 38.11230469 C4.01063173 34.22184997 1.84933439 30.32952599 -0.3125 26.4375 C-1.10024684 25.01952371 -1.88800676 23.60155468 -2.67578125 22.18359375 C-3.05114014 21.50490234 -3.42649902 20.82621094 -3.81323242 20.12695312 C-4.65993168 18.60947854 -5.51815741 17.09841158 -6.3840332 15.59179688 C-6.83738037 14.79708984 -7.29072754 14.00238281 -7.7578125 13.18359375 C-8.38067139 12.10356079 -8.38067139 12.10356079 -9.01611328 11.00170898 C-10.42133281 8.14280205 -10.66587553 6.10741916 -10 3 C-7.10323338 -0.34242303 -4.26533897 -0.69638187 0 0 Z " fill="#080807" transform="translate(965,823)"/>
<path d="M0 0 C9.56203956 -0.06780602 19.12391915 -0.12283351 28.68614483 -0.15543652 C33.12638476 -0.17108517 37.56645152 -0.19230877 42.0065918 -0.22631836 C46.29246025 -0.25894044 50.57816224 -0.27685904 54.86414528 -0.28463173 C56.49840731 -0.29017013 58.13266035 -0.30098535 59.76685143 -0.31719017 C62.05790186 -0.33900272 64.34826654 -0.34196539 66.6394043 -0.34057617 C67.94290329 -0.34723801 69.24640228 -0.35389984 70.58940125 -0.36076355 C75.08995729 0.11529262 77.65358064 1.6300624 80.7890625 4.8203125 C83.20057674 9.16103812 82.46987027 14.19187549 82 19 C80.77411898 22.67764306 79.90905887 24.31139829 76.84675598 26.63105774 C73.24780928 28.36171195 70.62860298 28.3609639 66.6394043 28.34057617 C65.91690994 28.34101425 65.19441559 28.34145233 64.45002747 28.34190369 C62.07447793 28.33982244 59.69964418 28.31652374 57.32421875 28.29296875 C55.67227056 28.28737041 54.02031738 28.28310144 52.36836243 28.28010559 C48.02979677 28.26867551 43.69153453 28.2392243 39.35308838 28.20599365 C34.92228296 28.17525306 30.4914283 28.16159174 26.06054688 28.14648438 C17.37354347 28.11435263 8.68684448 28.06159986 0 28 C0 18.76 0 9.52 0 0 Z " fill="#FAFAFA" transform="translate(341,840)"/>
<path d="M0 0 C2.97904813 2.26432608 3.91339322 3.42808316 4.48101807 7.17645264 C4.47213562 8.42887756 4.46325317 9.68130249 4.45410156 10.97167969 C4.45468567 11.6647673 4.45526978 12.35785492 4.45587158 13.07194519 C4.45309169 15.35577015 4.42200707 17.63827897 4.390625 19.921875 C4.3831622 21.50798835 4.37746945 23.09411094 4.37347412 24.68023682 C4.35822065 28.84960503 4.31894187 33.01841356 4.2746582 37.18756104 C4.23369898 41.44397409 4.21546175 45.70047781 4.1953125 49.95703125 C4.15244683 58.304944 4.0841996 66.65240233 4 75 C5.28666313 74.99333817 5.28666313 74.99333817 6.59931946 74.98654175 C14.67753594 74.94649083 22.75571914 74.91602874 30.83401203 74.89637566 C34.98728478 74.88593221 39.14047559 74.87176281 43.29370117 74.84912109 C47.30074559 74.82741266 51.30771112 74.8154356 55.3148098 74.81024551 C56.84464955 74.80654616 58.37448492 74.79932235 59.90429115 74.78853989 C62.04476933 74.77405137 64.18492025 74.77202092 66.32543945 74.77294922 C67.54455521 74.768508 68.76367096 74.76406677 70.01972961 74.75949097 C73 75 73 75 76 77 C76.6641372 83.97344061 76.6641372 83.97344061 74.96485901 86.60002136 C71.92810725 88.76373264 68.75620094 88.408789 65.16381836 88.37231445 C64.36680008 88.37596512 63.5697818 88.37961578 62.74861145 88.38337708 C60.11213933 88.39148822 57.47628067 88.37786922 54.83984375 88.36328125 C53.01046245 88.36276276 51.18108058 88.36328003 49.35169983 88.36479187 C45.51750371 88.36470212 41.68351776 88.35426706 37.84936523 88.33618164 C32.92723501 88.31347837 28.00541156 88.312953 23.08324337 88.31969929 C19.30608885 88.32303552 15.52900467 88.31641599 11.75186348 88.30657005 C9.93652273 88.30271299 8.12117416 88.30157193 6.30583 88.3031559 C3.7726631 88.30352546 1.23989438 88.29093771 -1.29321289 88.2746582 C-2.04806976 88.27713562 -2.80292664 88.27961304 -3.58065796 88.28216553 C-8.77125655 88.22874345 -8.77125655 88.22874345 -11 86 C-11.20367442 83.36608499 -11.28320184 80.83686878 -11.2746582 78.20141602 C-11.27976913 77.39639648 -11.28488007 76.59137695 -11.29014587 75.76196289 C-11.30408163 73.09253571 -11.30308211 70.42336556 -11.30078125 67.75390625 C-11.30466606 65.9030701 -11.30900028 64.05223485 -11.31376648 62.20140076 C-11.32123731 58.31840121 -11.32093123 54.43549257 -11.31567383 50.55249023 C-11.30987875 45.57096186 -11.32680689 40.58980524 -11.3500185 35.60833836 C-11.36473476 31.78482377 -11.36563041 27.96139914 -11.36250877 24.13786125 C-11.36302307 22.30100709 -11.36828108 20.46414804 -11.37832069 18.62732124 C-11.39062682 16.06062645 -11.38392876 13.49466121 -11.37231445 10.92797852 C-11.37995819 10.16579514 -11.38760193 9.40361176 -11.39547729 8.61833191 C-11.34446977 3.53083516 -11.34446977 3.53083516 -9.7228241 1.03184509 C-6.73973324 -0.75480722 -3.30326685 -0.80521092 0 0 Z " fill="#090808" transform="translate(241,823)"/>
<path d="M0 0 C2.33666992 0.23754883 2.33666992 0.23754883 5 1 C6.45043945 2.8190918 6.45043945 2.8190918 7.61328125 5.19921875 C8.05309326 6.07280029 8.49290527 6.94638184 8.94604492 7.84643555 C9.3969751 8.78398682 9.84790527 9.72153809 10.3125 10.6875 C11.27115898 12.60530733 12.23210787 14.52197166 13.1953125 16.4375 C13.66614258 17.38238281 14.13697266 18.32726562 14.62207031 19.30078125 C17.09462066 24.14424628 19.86769383 28.80253687 22.63671875 33.48046875 C24 36 24 36 24 38 C9.48 38 -5.04 38 -20 38 C-18.44385991 33.33157972 -16.74978399 29.40672609 -14.375 25.17578125 C-14.02743652 24.54770065 -13.67987305 23.91962006 -13.32177734 23.27250671 C-12.59121255 21.95437567 -11.85826425 20.63756311 -11.12304688 19.32202148 C-9.99889499 17.31052276 -8.88163476 15.29532241 -7.765625 13.27929688 C-7.05247757 11.99457275 -6.33894908 10.71006005 -5.625 9.42578125 C-5.29161621 8.82574783 -4.95823242 8.22571442 -4.61474609 7.60749817 C-3.15662609 5.00006488 -1.65858046 2.48787068 0 0 Z " fill="#F7F7F7" transform="translate(170,842)"/>
<path d="M0 0 C1.79516602 0.15820312 1.79516602 0.15820312 4 1 C5.65991211 3.35742188 5.65991211 3.35742188 7.27734375 6.46875 C7.87353516 7.59796875 8.46972656 8.7271875 9.08398438 9.890625 C9.7022524 11.09352935 10.32008839 12.29665585 10.9375 13.5 C12.15455743 15.82312128 13.37199838 18.14604168 14.58984375 20.46875 C15.16718262 21.5825 15.74452148 22.69625 16.33935547 23.84375 C18.19969186 27.37953785 20.1503009 30.85465449 22.15454102 34.31054688 C23 36 23 36 23 38 C8.81 38 -5.38 38 -20 38 C-19.13871977 33.69359886 -18.30328721 31.31937291 -16.26953125 27.578125 C-15.71330078 26.55203125 -15.15707031 25.5259375 -14.58398438 24.46875 C-13.99939453 23.4065625 -13.41480469 22.344375 -12.8125 21.25 C-12.24724609 20.20328125 -11.68199219 19.1565625 -11.09960938 18.078125 C-7.69194424 11.83269062 -4.07100721 5.83557348 0 0 Z " fill="#F8F8F8" transform="translate(615,842)"/>
<path d="M0 0 C0.66 0 1.32 0 2 0 C2 0.66 2 1.32 2 2 C4.16874252 1.49396008 5.99967627 1.00016187 8 0 C10.29612756 11.52164009 10.29612756 11.52164009 10 17 C6.69330664 14.26307534 5.13219468 10.60004821 3.3125 6.8125 C2.99216797 6.15830078 2.67183594 5.50410156 2.34179688 4.83007812 C1.55571708 3.22272093 0.77711317 1.61171142 0 0 Z " fill="#222222" transform="translate(874,597)"/>
<path d="M0 0 C0.66 0.33 1.32 0.66 2 1 C1.67 1.66 1.34 2.32 1 3 C0.84323225 5.69655446 0.74163685 8.37129977 0.68359375 11.0703125 C0.66281265 11.86654022 0.64203156 12.66276794 0.62062073 13.48312378 C0.55515851 16.03032685 0.49625585 18.57763425 0.4375 21.125 C0.3943116 22.85027127 0.35069721 24.57553193 0.30664062 26.30078125 C0.19948055 30.53374685 0.09820377 34.76681753 0 39 C-0.33 39 -0.66 39 -1 39 C-1.19210448 33.76762064 -1.37085125 28.53502233 -1.53710938 23.30175781 C-1.59558966 21.5207082 -1.65775006 19.73977553 -1.72363281 17.95898438 C-1.81757713 15.40256032 -1.89837558 12.84601088 -1.9765625 10.2890625 C-2.00875885 9.49005524 -2.0409552 8.69104797 -2.0741272 7.86782837 C-2.12738475 5.91245465 -2.07296352 3.95473759 -2 2 C-1.34 1.34 -0.68 0.68 0 0 Z " fill="#0E0E0E" transform="translate(747,824)"/>
<path d="M0 0 C3.63 0 7.26 0 11 0 C11.33 0.66 11.66 1.32 12 2 C11.01 2.99 10.02 3.98 9 5 C4.89198233 3.81323934 3.10551666 3.10551666 0 0 Z " fill="#1D1D1D" transform="translate(430,677)"/>
<path d="M0 0 C1.09375 3.75 1.09375 3.75 0.25 6 C-1.06034273 8.09654837 -2.47286435 10.05637281 -4 12 C-4.33 11.34 -4.66 10.68 -5 10 C-4.00390625 7.6171875 -4.00390625 7.6171875 -2.5625 4.875 C-1.85287109 3.50988281 -1.85287109 3.50988281 -1.12890625 2.1171875 C-0.75636719 1.41851563 -0.38382813 0.71984375 0 0 Z " fill="#111112" transform="translate(582,871)"/>
<path d="M0 0 C1.21816406 0.03480469 1.21816406 0.03480469 2.4609375 0.0703125 C3.68683594 0.09738281 3.68683594 0.09738281 4.9375 0.125 C5.87722656 0.15980469 5.87722656 0.15980469 6.8359375 0.1953125 C6.8359375 0.5253125 6.8359375 0.8553125 6.8359375 1.1953125 C4.1959375 1.1953125 1.5559375 1.1953125 -1.1640625 1.1953125 C-1.4528125 1.8346875 -1.7415625 2.4740625 -2.0390625 3.1328125 C-3.1640625 5.1953125 -3.1640625 5.1953125 -5.1640625 6.1953125 C-4.4726412 2.73820598 -3.94163347 0.35574309 0 0 Z " fill="#1A1B1B" transform="translate(1070.1640625,885.8046875)"/>
<path d="M0 0 C0.33 1.32 0.66 2.64 1 4 C-1.31 5.98 -3.62 7.96 -6 10 C-4.6302836 6.00499382 -2.74277578 3.19990508 0 0 Z " fill="#DEDDDF" transform="translate(594,252)"/>
<path d="M0 0 C1 4 1 4 1 4 Z M-2 2 C0 4 0 4 0.125 6.625 C0.08375 7.40875 0.0425 8.1925 0 9 C-0.99 9.33 -1.98 9.66 -3 10 C-2.67 7.36 -2.34 4.72 -2 2 Z " fill="#121212" transform="translate(575,434)"/>
<path d="M0 0 C0.99 0.33 1.98 0.66 3 1 C3 2.98 3 4.96 3 7 C2.01 7.495 2.01 7.495 1 8 C-0.35439668 5.29120665 -0.06501451 2.99066732 0 0 Z " fill="#262626" transform="translate(565,902)"/>
<path d="M0 0 C1.39195915 4.17587745 -0.17676781 6.13474776 -2 10 C-2.66 9.67 -3.32 9.34 -4 9 C-2.94124926 5.59687262 -1.99097846 2.98646769 0 0 Z " fill="#1A1B1B" transform="translate(133,880)"/>
<path d="M0 0 C0.66 0.99 1.32 1.98 2 3 C0.515 5.475 0.515 5.475 -1 8 C-1.66 7.34 -2.32 6.68 -3 6 C-2.01 4.02 -1.02 2.04 0 0 Z " fill="#1E1F1F" transform="translate(161,828)"/>
<path d="M0 0 C0.66 0.33 1.32 0.66 2 1 C0.02 1.99 0.02 1.99 -2 3 C-2 3.99 -2 4.98 -2 6 C-3.32 5.67 -4.64 5.34 -6 5 C-4.02 3.35 -2.04 1.7 0 0 Z " fill="#0A0B0B" transform="translate(524,288)"/>
</svg>
